# xmcd
#
# Track frame offsets:
#	150
#	21811
#	45240
#	62023
#	74389
#	86046
#	114368
#	130865
#	151745
#	172750
#	189004
#	212892
#	233145
#	263338
#	286109
#	305158
#
# Disc length: 4480 seconds
#
# Revision: 0
# Processed by: cddbd v1.5.1PL2 Copyright (c) Steve Scherf et al.
# Submitted via: dBpowerAMP V4.0
#
DISCID=c7117e10
DTITLE=Thomas ACEITUNO - Je chante par ta voix
DYEAR=2004
DGENRE=Undefined
TTITLE0=Je chante par ta voix
TTITLE1=Je veux croire
TTITLE2=Le vieux carrier
TTITLE3=Amargos son los dias
TTITLE4=Aurore
TTITLE5=Tu es la déchirure
TTITLE6=Espoir
TTITLE7=Je veux partir avec toi
TTITLE8=Mi padre rompiendo piedra
TTITLE9=Souviens-toi
TTITLE10=Nanas de las cebollas
TTITLE11=No es que yo quisiera dejarte de amar
TTITLE12=Oracion para un poeta
TTITLE13=Sé que para mi
TTITLE14=La vieille maîtresse
TTITLE15=Libertad
EXTD=Je chante par ta voix
EXTT0=
EXTT1=
EXTT2=
EXTT3=
EXTT4=
EXTT5=
EXTT6=
EXTT7=
EXTT8=
EXTT9=
EXTT10=
EXTT11=
EXTT12=
EXTT13=
EXTT14=
EXTT15=
PLAYORDER=
